<?xml version="1.0" encoding="UTF-8"?>
<svg id="Layer_2" data-name="Layer 2" xmlns="http://www.w3.org/2000/svg" viewBox="0 0 314.57 203.73">
  <defs>
    <style>
      .cls-1 {
        fill: #2a2b2d;
      }

      .cls-1, .cls-2 {
        stroke-width: 0px;
      }

      .cls-2 {
        fill: #71c498;
      }
    </style>
  </defs>
  <g id="Layer_1-2" data-name="Layer 1">
    <g>
      <path class="cls-2" d="m221.14,45.64l-5.11,21.73c-6.35-6.35-13.72-11.69-21.83-15.74l2.75-11.67c1.32-5.62-1.17-11.44-5.91-13.81-1.74-.88-3.62-1.32-5.59-1.32h-57.96c-1.95,0-3.83.44-5.57,1.32-4.74,2.39-7.23,8.19-5.91,13.81l2.74,11.67c-8.11,4.06-15.48,9.39-21.83,15.74l-5.11-21.73c-3.98-16.95,3.83-34.09,18.96-41.7,5.15-2.58,10.94-3.94,16.72-3.94h57.96c5.8,0,11.57,1.36,16.72,3.94,15.15,7.61,22.94,24.75,18.96,41.7Z"/>
      <path class="cls-2" d="m233.18,127.04c0,42.35-34.34,76.69-76.69,76.69s-76.67-34.34-76.67-76.69c0-19.47,7.25-37.25,19.22-50.77,6.06-6.87,13.35-12.64,21.52-16.99,10.71-5.7,22.94-8.91,35.92-8.91s25.21,3.21,35.92,8.91c8.17,4.34,15.46,10.12,21.54,16.99,11.96,13.52,19.23,31.3,19.23,50.77Z"/>
      <path class="cls-2" d="m233.18,127.04c0,1.47-.04,2.93-.13,4.36-.55,9.93-3,19.36-6.98,27.93-12.19,26.23-38.76,44.4-69.57,44.4s-56.85-17.83-69.21-43.63c-4.07-8.53-6.62-17.94-7.29-27.87-.11-1.7-.17-3.44-.17-5.18,0-19.47,7.25-37.25,19.23-50.77,6.06-6.87,13.35-12.64,21.52-16.99,10.71-5.7,22.94-8.91,35.92-8.91s25.21,3.21,35.92,8.91c8.17,4.34,15.46,10.12,21.54,16.99,11.96,13.52,19.22,31.3,19.22,50.77Z"/>
      <path class="cls-2" d="m233.18,127.04c0,1.47-.04,2.93-.13,4.36-.55,9.93-3,19.36-6.98,27.93-12.19,26.23-38.76,44.4-69.57,44.4s-56.85-17.83-69.21-43.63c-4.07-8.53-6.62-17.94-7.29-27.87-.11-1.7-.17-3.44-.17-5.18,0-19.47,7.25-37.25,19.23-50.77,6.06-6.87,13.35-12.64,21.52-16.99,10.71-5.7,22.94-8.91,35.92-8.91s25.21,3.21,35.92,8.91c8.17,4.34,15.46,10.12,21.54,16.99,11.96,13.52,19.22,31.3,19.22,50.77Z"/>
      <g>
        <g>
          <g>
            <path class="cls-1" d="m184.33,161.76h-55.67c-1.74,0-3.4-.74-4.56-2.02-1.17-1.29-1.74-3.01-1.57-4.74l4.47-46.06c.31-3.18,2.95-5.57,6.14-5.57h46.72c3.19,0,5.83,2.39,6.14,5.57l4.47,46.06c.17,1.73-.4,3.45-1.57,4.74-1.17,1.29-2.83,2.02-4.57,2.02Zm-51.19-53.17c-.49,0-.89.37-.94.85l-4.47,46.06c-.04.36.14.61.24.72.1.12.33.31.7.31h55.67c.36,0,.59-.19.7-.31.1-.12.27-.36.24-.72l-4.47-46.06c-.05-.49-.45-.85-.94-.85h-46.72Z"/>
            <path class="cls-1" d="m184.33,162.53h-55.67c-1.95,0-3.82-.83-5.14-2.28-1.31-1.45-1.96-3.39-1.77-5.33l4.47-46.07c.35-3.57,3.31-6.27,6.91-6.27h46.72c3.59,0,6.56,2.7,6.91,6.27l4.47,46.07c.19,1.94-.45,3.88-1.77,5.33-1.31,1.45-3.19,2.28-5.14,2.28Zm-51.19-58.4c-2.79,0-5.1,2.09-5.37,4.87l-4.47,46.07c-.15,1.51.36,3.02,1.37,4.14,1.02,1.12,2.48,1.77,3.99,1.77h55.67c1.52,0,2.97-.64,3.99-1.77,1.02-1.12,1.52-2.63,1.37-4.14l-4.47-46.07c-.27-2.78-2.58-4.87-5.37-4.87h-46.72Zm51.19,53.17h-55.67c-.66,0-1.08-.35-1.27-.56-.19-.21-.5-.66-.44-1.32l4.47-46.06c.09-.88.82-1.55,1.71-1.55h46.72c.89,0,1.62.67,1.71,1.55l4.47,46.07c.06.66-.25,1.11-.44,1.32-.33.36-.78.56-1.27.56Zm-51.19-47.95c-.09,0-.16.06-.17.15l-4.47,46.06.17.18h55.67l.17-.18-4.47-46.06c0-.09-.08-.15-.17-.15h-46.72Z"/>
          </g>
          <g>
            <path class="cls-1" d="m184.33,162.26h-55.67c-1.87,0-3.67-.8-4.94-2.19-1.26-1.39-1.88-3.26-1.7-5.13l4.47-46.06c.33-3.43,3.19-6.03,6.64-6.03h46.72c3.45,0,6.3,2.59,6.64,6.03l4.47,46.06c.18,1.87-.44,3.74-1.7,5.13-1.26,1.39-3.06,2.19-4.94,2.19Zm-51.19-58.4c-2.93,0-5.35,2.2-5.63,5.12l-4.47,46.06c-.15,1.59.37,3.17,1.44,4.35,1.07,1.18,2.6,1.86,4.19,1.86h55.67c1.59,0,3.12-.68,4.19-1.86,1.07-1.18,1.6-2.76,1.44-4.35l-4.47-46.06c-.28-2.92-2.71-5.12-5.63-5.12h-46.72Zm51.19,53.17h-55.67c-.56,0-.91-.3-1.07-.47-.28-.31-.41-.71-.37-1.12l4.47-46.06c.07-.74.69-1.3,1.44-1.3h46.72c.75,0,1.37.56,1.44,1.3l4.47,46.07c.05.55-.21.93-.37,1.11-.16.18-.52.47-1.07.47Zm-51.19-47.95c-.23,0-.41.17-.44.39l-4.47,46.06c-.01.13.03.24.11.34.06.06.16.14.32.14h55.67c.16,0,.27-.08.33-.14.06-.06.13-.18.11-.33l-4.47-46.06c-.02-.22-.21-.39-.44-.39h-46.72Z"/>
            <path class="cls-1" d="m184.33,163.04h-55.67c-2.09,0-4.1-.89-5.51-2.44-1.41-1.55-2.1-3.64-1.9-5.72l4.47-46.07c.37-3.83,3.56-6.72,7.41-6.72h46.72c3.85,0,7.03,2.89,7.41,6.72l4.47,46.06c.2,2.09-.49,4.17-1.9,5.72-1.41,1.55-3.42,2.44-5.51,2.44Zm-51.19-58.4c-2.53,0-4.62,1.9-4.86,4.42l-4.47,46.07c-.13,1.37.32,2.74,1.25,3.76.92,1.02,2.24,1.6,3.62,1.6h55.67c1.37,0,2.69-.58,3.62-1.61.92-1.02,1.38-2.38,1.24-3.75l-4.47-46.06c-.24-2.52-2.34-4.42-4.86-4.42h-46.72Zm51.19,53.17h-55.67c-.85,0-1.39-.45-1.64-.72-.43-.48-.63-1.08-.57-1.71l4.47-46.07c.11-1.14,1.06-2,2.21-2h46.72c1.15,0,2.1.86,2.21,2l4.47,46.07c.08.85-.32,1.43-.56,1.7-.25.28-.79.73-1.65.73Zm-.33-2.19h0s0,0,0,0Zm-55,0h0s0,0,0,0Zm.04-.36h54.93l-4.41-45.39h-46.11l-4.41,45.39Z"/>
          </g>
        </g>
        <g>
          <g>
            <path class="cls-1" d="m170.87,120.92h-5.22v-20.41c0-5.04-4.1-9.15-9.15-9.15s-9.15,4.1-9.15,9.15v20.41h-5.22v-20.41c0-7.92,6.45-14.37,14.37-14.37s14.37,6.45,14.37,14.37v20.41Z"/>
            <path class="cls-1" d="m171.64,121.69h-6.77v-21.18c0-4.62-3.76-8.37-8.37-8.37s-8.37,3.76-8.37,8.37v21.18h-6.77v-21.18c0-8.35,6.79-15.14,15.14-15.14s15.14,6.79,15.14,15.14v21.18Zm-5.22-1.55h3.68v-19.63c0-7.5-6.1-13.6-13.6-13.6s-13.6,6.1-13.6,13.6v19.63h3.68v-19.63c0-5.47,4.45-9.92,9.92-9.92s9.92,4.45,9.92,9.92v19.63Z"/>
          </g>
          <g>
            <path class="cls-1" d="m171.37,121.42h-6.23v-20.91c0-4.76-3.88-8.64-8.64-8.64s-8.64,3.88-8.64,8.64v20.91h-6.23v-20.91c0-8.2,6.67-14.87,14.87-14.87s14.87,6.67,14.87,14.87v20.91Zm-5.22-1.01h4.21v-19.9c0-7.65-6.22-13.87-13.87-13.87s-13.87,6.22-13.87,13.87v19.9h4.21v-19.9c0-5.32,4.33-9.65,9.65-9.65s9.65,4.33,9.65,9.65v19.9Z"/>
            <path class="cls-1" d="m172.14,122.2h-7.78v-21.68c0-4.34-3.53-7.87-7.87-7.87s-7.87,3.53-7.87,7.87v21.68h-7.78v-21.68c0-8.63,7.02-15.65,15.65-15.65s15.65,7.02,15.65,15.65v21.68Zm-5.22-2.56h2.67v-19.13c0-7.22-5.87-13.09-13.09-13.09s-13.09,5.87-13.09,13.09v19.13h2.67v-19.13c0-5.75,4.68-10.42,10.43-10.42s10.43,4.68,10.43,10.42v19.13Z"/>
          </g>
        </g>
        <g>
          <g>
            <circle class="cls-1" cx="144.74" cy="118.85" r="4.6"/>
            <path class="cls-1" d="m144.74,124.22c-2.96,0-5.37-2.41-5.37-5.37s2.41-5.37,5.37-5.37,5.37,2.41,5.37,5.37-2.41,5.37-5.37,5.37Zm0-9.19c-2.11,0-3.82,1.72-3.82,3.82s1.71,3.82,3.82,3.82,3.82-1.72,3.82-3.82-1.71-3.82-3.82-3.82Z"/>
          </g>
          <g>
            <path class="cls-1" d="m144.74,123.95c-2.81,0-5.1-2.29-5.1-5.1s2.29-5.1,5.1-5.1,5.1,2.29,5.1,5.1-2.29,5.1-5.1,5.1Zm0-9.19c-2.26,0-4.09,1.84-4.09,4.09s1.84,4.09,4.09,4.09,4.09-1.84,4.09-4.09-1.84-4.09-4.09-4.09Z"/>
            <path class="cls-1" d="m144.74,124.72c-3.24,0-5.88-2.64-5.88-5.88s2.64-5.88,5.88-5.88,5.88,2.64,5.88,5.88-2.64,5.88-5.88,5.88Zm0-9.19c-1.83,0-3.32,1.49-3.32,3.32s1.49,3.32,3.32,3.32,3.32-1.49,3.32-3.32-1.49-3.32-3.32-3.32Z"/>
          </g>
        </g>
        <g>
          <g>
            <circle class="cls-1" cx="168.25" cy="118.85" r="4.6"/>
            <path class="cls-1" d="m168.25,124.22c-2.96,0-5.37-2.41-5.37-5.37s2.41-5.37,5.37-5.37,5.37,2.41,5.37,5.37-2.41,5.37-5.37,5.37Zm0-9.19c-2.11,0-3.82,1.72-3.82,3.82s1.71,3.82,3.82,3.82,3.82-1.72,3.82-3.82-1.71-3.82-3.82-3.82Z"/>
          </g>
          <g>
            <path class="cls-1" d="m168.25,123.95c-2.81,0-5.1-2.29-5.1-5.1s2.29-5.1,5.1-5.1,5.1,2.29,5.1,5.1-2.29,5.1-5.1,5.1Zm0-9.19c-2.26,0-4.09,1.84-4.09,4.09s1.84,4.09,4.09,4.09,4.09-1.84,4.09-4.09-1.84-4.09-4.09-4.09Z"/>
            <path class="cls-1" d="m168.25,124.72c-3.24,0-5.88-2.64-5.88-5.88s2.64-5.88,5.88-5.88,5.88,2.64,5.88,5.88-2.64,5.88-5.88,5.88Zm0-9.19c-1.83,0-3.32,1.49-3.32,3.32s1.49,3.32,3.32,3.32,3.32-1.49,3.32-3.32-1.49-3.32-3.32-3.32Z"/>
          </g>
        </g>
      </g>
      <path class="cls-2" d="m242.5,114.17h12.53l-1.02,35.76h-19.6s6.91-17.97,2.68-35.59l5.41-.17Z"/>
      <g>
        <path class="cls-2" d="m264.54,194.76c1.85.04,3.63-.26,5.26-.86,5.39-1.97,9.3-7.06,9.44-13.14l.87-35.73.7-28.72.8-32.26c.2-7.93-6.06-14.51-14-14.71-7.91-.19-14.48,6.08-14.69,13.99l-.8,32.59-.69,28.8-.87,35.34c-.21,7.92,6.07,14.5,13.97,14.69Z"/>
        <path class="cls-2" d="m298.28,179.68c1.85.04,3.63-.27,5.26-.86,5.37-1.96,9.27-7.07,9.42-13.13l.59-23.9.54-22.13.47-18.91c.18-7.93-6.07-14.5-14-14.71-7.93-.18-14.5,6.08-14.69,13.99l-.4,16.54-.72,28.73-.48,19.66c-.18,7.93,6.07,14.51,14,14.71Z"/>
      </g>
      <g>
        <path class="cls-2" d="m72.08,114.17h-12.53s1.02,35.76,1.02,35.76h19.6s-6.91-17.97-2.68-35.59l-5.41-.17Z"/>
        <g>
          <path class="cls-2" d="m50.04,194.76c-1.85.04-3.63-.26-5.26-.86-5.39-1.97-9.3-7.06-9.44-13.14l-.87-35.73-.7-28.72-.8-32.26c-.2-7.93,6.06-14.51,14-14.71,7.91-.19,14.48,6.08,14.69,13.99l.8,32.59.69,28.8.87,35.34c.21,7.92-6.07,14.5-13.97,14.69Z"/>
          <path class="cls-2" d="m16.3,179.68c-1.85.04-3.63-.27-5.26-.86-5.37-1.96-9.27-7.07-9.42-13.13l-.59-23.9-.54-22.13L0,100.76c-.18-7.93,6.07-14.5,14-14.71,7.93-.18,14.5,6.08,14.69,13.99l.4,16.54.72,28.73.48,19.66c.18,7.93-6.07,14.51-14,14.71Z"/>
        </g>
      </g>
    </g>
  </g>
</svg>