<svg width="148" height="95" viewBox="0 0 148 95" fill="none" xmlns="http://www.w3.org/2000/svg">
<g clip-path="url(#clip0_3802_3090)">
<path d="M104.404 21.4018L102.005 31.592C99.0051 28.5941 95.536 26.1033 91.7333 24.2172L93.0329 18.7359C93.6576 16.095 92.4831 13.3793 90.2588 12.2581C89.4476 11.8419 88.5471 11.6281 87.6348 11.6352H60.3445C59.4321 11.6281 58.5316 11.8419 57.7204 12.2581C55.4962 13.3793 54.3216 16.095 54.9464 18.7359L56.2459 24.2172C52.4485 26.112 48.9807 28.6019 45.9746 31.592L43.5754 21.4018C41.7011 13.454 45.3748 5.40654 52.4972 1.84373C54.9413 0.6258 57.6371 -0.0055663 60.3694 3.69722e-05H87.6348C90.3657 0.00653297 93.0588 0.637259 95.507 1.84373C102.614 5.40654 106.288 13.454 104.404 21.4018Z" fill="#58E2A4"/>
<path d="M110.438 59.0232C110.438 59.7208 110.413 60.3935 110.364 61.0662C110.111 65.6014 109.001 70.0481 107.09 74.1714C104.194 80.395 99.5733 85.6629 93.7724 89.3535C87.9715 93.0441 81.2327 95.0034 74.3513 95.0001C67.5394 94.9965 60.8674 93.0723 55.1055 89.4499C49.3436 85.8274 44.7267 80.6543 41.7878 74.5277C39.8172 70.4263 38.6549 65.9858 38.3641 61.4474C38.3141 60.6502 38.2891 59.828 38.2891 59.0058C38.2797 50.2302 41.4985 41.7557 47.3359 35.1873C50.2048 31.9482 53.6328 29.2479 57.4573 27.2145C62.6602 24.462 68.4612 23.0248 74.3513 23.0289C80.2421 23.0187 86.0446 24.4564 91.2453 27.2145C95.0733 29.2537 98.5085 31.953 101.392 35.1873C107.228 41.7634 110.446 50.2427 110.438 59.0232Z" fill="white"/>
<path d="M114.088 53.542H119.986L119.511 70.3096H110.289C110.289 70.3096 113.538 61.8884 111.564 53.6167L114.088 53.542Z" fill="#58E2A4"/>
<path d="M124.458 91.3622C125.3 91.3841 126.14 91.2489 126.932 90.9636C128.209 90.5029 129.316 89.6692 130.109 88.5713C130.903 87.4734 131.346 86.1625 131.381 84.8096L131.78 68.042L132.105 54.5631L132.48 39.4398C132.503 38.5543 132.351 37.6729 132.032 36.8463C131.712 36.0196 131.232 35.264 130.619 34.6228C130.006 33.9815 129.272 33.4673 128.46 33.1096C127.647 32.7519 126.771 32.5578 125.883 32.5385C124.996 32.5152 124.114 32.6664 123.287 32.9832C122.459 33.2999 121.702 33.7762 121.059 34.3847C120.417 34.9933 119.9 35.7221 119.54 36.5296C119.18 37.3372 118.983 38.2075 118.96 39.091L118.585 54.3887L118.26 67.8925L117.86 84.4608C117.829 86.2449 118.504 87.9693 119.739 89.2609C120.974 90.5526 122.669 91.3075 124.458 91.3622Z" fill="white"/>
<path d="M140.353 84.2865C141.196 84.3083 142.035 84.1731 142.827 83.8879C144.101 83.4258 145.204 82.591 145.994 81.4929C146.783 80.3948 147.221 79.0845 147.251 77.7339L147.526 66.5223L147.776 56.1328L148.001 47.2632C148.04 45.4767 147.368 43.7474 146.131 42.4539C144.895 41.1604 143.195 40.4081 141.403 40.3618C139.616 40.3255 137.887 40.9931 136.591 42.2199C135.295 43.4467 134.537 45.1335 134.48 46.9143L134.28 54.6628L133.98 68.1666L133.756 77.3851C133.716 79.1715 134.388 80.9008 135.625 82.1943C136.861 83.4878 138.561 84.2401 140.353 84.2865Z" fill="white"/>
<path d="M33.9135 53.542H28.0156L28.4904 70.3096H37.7122C37.7122 70.3096 34.4633 61.8884 36.4376 53.6167L33.9135 53.542Z" fill="#58E2A4"/>
<path d="M23.544 91.3622C22.7016 91.3841 21.8625 91.2489 21.0699 90.9636C19.7935 90.5029 18.6862 89.6692 17.8926 88.5713C17.099 87.4734 16.656 86.1625 16.6214 84.8096L16.2216 68.042L15.8967 54.5631L15.5218 39.4398C15.4986 38.5543 15.651 37.6729 15.9703 36.8463C16.2896 36.0196 16.7696 35.264 17.3826 34.6228C17.9956 33.9815 18.7297 33.4673 19.5425 33.1096C20.3554 32.7519 21.2312 32.5578 22.1195 32.5385C23.0057 32.5152 23.8878 32.6664 24.7153 32.9832C25.5429 33.2999 26.2998 33.7762 26.9427 34.3847C27.5855 34.9933 28.1018 35.7221 28.4621 36.5296C28.8223 37.3372 29.0194 38.2075 29.042 39.091L29.4169 54.3887L29.7418 67.8925L30.1417 84.4608C30.1727 86.2449 29.4978 87.9693 28.263 89.2609C27.0282 90.5526 25.3329 91.3075 23.544 91.3622Z" fill="white"/>
<path d="M7.64895 84.2865C6.80654 84.3083 5.96744 84.1731 5.17483 83.8879C3.90144 83.4258 2.79776 82.591 2.00844 81.4929C1.21911 80.3948 0.78096 79.0845 0.751391 77.7339L0.476494 66.5223L0.226583 56.1328L0.00165668 47.2632C-0.037954 45.4767 0.634111 43.7474 1.87068 42.4539C3.10726 41.1604 4.80757 40.4081 6.59932 40.3618C8.3861 40.3255 10.1152 40.9931 11.4112 42.2199C12.7072 43.4467 13.4657 45.1335 13.5219 46.9143L13.7218 54.6628L14.0217 68.1666L14.2466 77.3851C14.2862 79.1715 13.6142 80.9008 12.3776 82.1943C11.141 83.4878 9.4407 84.2401 7.64895 84.2865Z" fill="white"/>
<path d="M81.1242 57.5854C81.0992 57.5854 81.0992 57.6029 81.1242 57.5854V57.5854Z" fill="#2A2B2D"/>
<path d="M70.6292 58.2007H70.6542V58.1758C70.6475 58.1758 70.6412 58.1784 70.6365 58.1831C70.6318 58.1878 70.6292 58.1941 70.6292 58.2007ZM66.9805 58.1509V58.1758H67.0055C67.0022 58.1758 66.9989 58.1751 66.9959 58.1739C66.9929 58.1726 66.9901 58.1708 66.9878 58.1685C66.9855 58.1662 66.9836 58.1634 66.9824 58.1604C66.9811 58.1574 66.9805 58.1542 66.9805 58.1509ZM81.7003 58.2007H81.7252V58.1758C81.7002 58.1758 81.7003 58.1758 81.7003 58.2007ZM70.6292 58.2007H70.6542V58.1758C70.6475 58.1758 70.6412 58.1784 70.6365 58.1831C70.6318 58.1878 70.6292 58.1941 70.6292 58.2007ZM66.9805 58.1509V58.1758H67.0055C67.0022 58.1758 66.9989 58.1751 66.9959 58.1739C66.9929 58.1726 66.9901 58.1708 66.9878 58.1685C66.9855 58.1662 66.9836 58.1634 66.9824 58.1604C66.9811 58.1574 66.9805 58.1542 66.9805 58.1509ZM70.6292 58.2007H70.6542V58.1758C70.6509 58.1758 70.6476 58.1764 70.6446 58.1777C70.6416 58.1789 70.6388 58.1808 70.6365 58.1831C70.6342 58.1854 70.6323 58.1881 70.6311 58.1912C70.6298 58.1942 70.6292 58.1974 70.6292 58.2007ZM66.9805 58.1509V58.1758H67.0055C67.0022 58.1758 66.9989 58.1751 66.9959 58.1739C66.9929 58.1726 66.9901 58.1708 66.9878 58.1685C66.9855 58.1662 66.9836 58.1634 66.9824 58.1604C66.9811 58.1574 66.9805 58.1542 66.9805 58.1509ZM70.6292 58.2007H70.6542V58.1758C70.6509 58.1758 70.6476 58.1764 70.6446 58.1777C70.6416 58.1789 70.6388 58.1808 70.6365 58.1831C70.6342 58.1854 70.6323 58.1881 70.6311 58.1912C70.6298 58.1942 70.6292 58.1974 70.6292 58.2007ZM66.9805 58.1509V58.1758H67.0055C67.0022 58.1758 66.9989 58.1751 66.9959 58.1739C66.9929 58.1726 66.9901 58.1708 66.9878 58.1685C66.9855 58.1662 66.9836 58.1634 66.9824 58.1604C66.9811 58.1574 66.9805 58.1542 66.9805 58.1509ZM81.7003 58.2007H81.7252V58.1758C81.7002 58.1758 81.7003 58.1758 81.7003 58.2007ZM70.6292 58.2007H70.6542V58.1758C70.6509 58.1758 70.6476 58.1764 70.6446 58.1777C70.6416 58.1789 70.6388 58.1808 70.6365 58.1831C70.6342 58.1854 70.6323 58.1881 70.6311 58.1912C70.6298 58.1942 70.6292 58.1974 70.6292 58.2007ZM66.9805 58.1509V58.1758H67.0055C67.0022 58.1758 66.9989 58.1751 66.9959 58.1739C66.9929 58.1726 66.9901 58.1708 66.9878 58.1685C66.9855 58.1662 66.9836 58.1634 66.9824 58.1604C66.9811 58.1574 66.9805 58.1542 66.9805 58.1509ZM81.7003 58.2007H81.7252V58.1758C81.7002 58.1758 81.7003 58.1758 81.7003 58.2007ZM70.6292 58.2007H70.6542V58.1758C70.6509 58.1758 70.6476 58.1764 70.6446 58.1777C70.6416 58.1789 70.6388 58.1808 70.6365 58.1831C70.6342 58.1854 70.6323 58.1881 70.6311 58.1912C70.6298 58.1942 70.6292 58.1974 70.6292 58.2007ZM66.9805 58.1509V58.1758H67.0055C67.0022 58.1758 66.9989 58.1751 66.9959 58.1739C66.9929 58.1726 66.9901 58.1708 66.9878 58.1685C66.9855 58.1662 66.9836 58.1634 66.9824 58.1604C66.9811 58.1574 66.9805 58.1542 66.9805 58.1509Z" fill="#2A2B2D"/>
<path d="M70.6292 58.2007H70.6542V58.1758C70.6475 58.1758 70.6412 58.1784 70.6365 58.1831C70.6318 58.1878 70.6292 58.1941 70.6292 58.2007ZM66.9805 58.1509V58.1758H67.0055C66.9988 58.1758 66.9925 58.1732 66.9878 58.1685C66.9831 58.1638 66.9805 58.1575 66.9805 58.1509Z" fill="#2A2B2D"/>
<path d="M70.6292 58.2007H70.6542V58.1758C70.6475 58.1758 70.6412 58.1784 70.6365 58.1831C70.6318 58.1878 70.6292 58.1941 70.6292 58.2007ZM66.9805 58.1509V58.1758H67.0055C67.0022 58.1758 66.9989 58.1751 66.9959 58.1739C66.9929 58.1726 66.9901 58.1708 66.9878 58.1685C66.9855 58.1662 66.9836 58.1634 66.9824 58.1604C66.9811 58.1574 66.9805 58.1542 66.9805 58.1509Z" fill="#2A2B2D"/>
<path d="M90.945 73.531L88.8458 51.9299C88.765 51.0664 88.3644 50.2638 87.7221 49.6787C87.0798 49.0937 86.242 48.7682 85.372 48.7658H81.7483V48.0183C81.7486 47.053 81.5581 46.0971 81.1878 45.2053C80.8174 44.3134 80.2743 43.503 79.5897 42.8205C78.905 42.1379 78.0922 41.5965 77.1976 41.2273C76.303 40.858 75.3441 40.6681 74.3759 40.6685C72.4216 40.6718 70.5484 41.4472 69.1665 42.8248C67.7846 44.2025 67.0068 46.07 67.0035 48.0183V48.7658H63.3798C62.5074 48.7596 61.6648 49.0822 61.0207 49.6689C60.3766 50.2556 59.9785 51.0631 59.906 51.9299L57.8068 73.531C57.7573 74.0175 57.8119 74.5089 57.9669 74.9727C58.122 75.4365 58.3741 75.8623 58.7065 76.2218C59.0367 76.5816 59.4382 76.8692 59.8855 77.0664C60.3329 77.2637 60.8164 77.3663 61.3055 77.3679H87.4962C87.985 77.3638 88.4677 77.26 88.9147 77.0629C89.3617 76.8658 89.7635 76.5796 90.0953 76.2218C90.7077 75.4632 91.011 74.5026 90.945 73.531ZM81.7233 58.1586V58.1835H81.6983L81.7233 58.1586ZM81.1235 57.5856C81.0985 57.5856 81.0985 57.603 81.1235 57.5856V57.5856ZM70.6522 48.0183C70.6542 47.041 71.0445 46.1042 71.7377 45.4131C72.4309 44.722 73.3706 44.3329 74.3509 44.3309C75.3313 44.3329 76.2709 44.722 76.9641 45.4131C77.6573 46.1042 78.0476 47.041 78.0496 48.0183V48.7658H70.6522V48.0183ZM70.6522 58.1586V58.1835H70.6272C70.6312 58.1837 70.6353 58.1829 70.6389 58.1813C70.6426 58.1796 70.6457 58.177 70.6482 58.1738C70.6506 58.1707 70.6523 58.1669 70.653 58.163C70.6537 58.159 70.6534 58.155 70.6522 58.1512V58.1586ZM61.4305 73.7054L63.5048 52.4033H66.9785V54.546C66.6855 54.8051 66.4514 55.1237 66.292 55.4803C66.1325 55.8369 66.0513 56.2234 66.0539 56.6139C66.0555 56.9754 66.1285 57.3331 66.2688 57.6665C66.4091 57.9999 66.6139 58.3025 66.8715 58.557C67.1291 58.8115 67.4345 59.0129 67.7701 59.1497C68.1058 59.2866 68.4652 59.3562 68.8279 59.3545C69.557 59.3545 70.2562 59.0658 70.7717 58.5518C71.2873 58.0379 71.5769 57.3408 71.5769 56.6139C71.5794 56.2234 71.4982 55.8369 71.3388 55.4803C71.1793 55.1237 70.9452 54.8051 70.6522 54.546V52.4033H78.0496V54.546C77.7566 54.8051 77.5225 55.1237 77.3631 55.4803C77.2036 55.8369 77.1224 56.2234 77.1249 56.6139C77.1266 56.9754 77.1996 57.3331 77.3399 57.6665C77.4802 57.9999 77.685 58.3025 77.9426 58.557C78.2002 58.8115 78.5055 59.0129 78.8412 59.1497C79.1769 59.2866 79.5363 59.3562 79.8989 59.3545C80.628 59.3545 81.3273 59.0658 81.8428 58.5518C82.3583 58.0379 82.648 57.3408 82.648 56.6139C82.6505 56.2234 82.5693 55.8369 82.4098 55.4803C82.2504 55.1237 82.0163 54.8051 81.7233 54.546V52.4033H85.1971L87.2713 73.7054H61.4305ZM67.0035 58.2085H66.9785V58.1835C66.984 58.1833 66.9895 58.1849 66.994 58.188C66.9985 58.1912 67.0019 58.1957 67.0035 58.201V58.2085Z" fill="#2A2B2D"/>
<path d="M81.1242 57.5854C81.0992 57.5854 81.0992 57.6029 81.1242 57.5854V57.5854Z" fill="#2A2B2D"/>
<path d="M81.6992 58.2007H81.7242V58.1758C81.6992 58.1758 81.6992 58.1758 81.6992 58.2007Z" fill="#2A2B2D"/>
</g>
<defs>
<clipPath id="clip0_3802_3090">
<rect width="148" height="95" fill="white"/>
</clipPath>
</defs>
</svg>
